# xmcd
#
# Track frame offsets:
#	150
#	12663
#	25175
#	37238
#	47163
#	59038
#	70275
#	84025
#	94913
#	111688
#	124625
#	138463
#	148450
#	160050
#	173088
#	189438
#	201775
#	213563
#	226963
#	242613
#	255525
#	269463
#
# Disc length: 3783 seconds
#
# Revision: 2
# Processed by: cddbd v1.5.2PL0 Copyright (c) Steve Scherf et al.
# Submitted via: EZCDAudioConverter 9.0.6.1
#
DISCID=4e0ec516
DTITLE=George Jones - 22 Legendary Duets
DYEAR=1996
DGENRE=Country
TTITLE0=Yearning (With Jeanette Hicks)
TTITLE1=Waltz Of The Angels (With Margie Singleton)
TTITLE2=We Must Have Been Out Of Our Minds (With Melba Montgomery)
TTITLE3=I've Got Five Dollars and It's Saturday Night (With Gene Pitney)
TTITLE4=Milwaukee, Here I Come (With Brenda Carter)
TTITLE5=The Telephone Call (With Tina)
TTITLE6=Golden Ring (With Tammy Wynette)
TTITLE7=Daddy Come Home (With Georgette Jones)
TTITLE8=Night Life (With Waylon Jennings)
TTITLE9=Best Friends (With Leona Williams)
TTITLE10=Will The Circle Be Unbroken (With Pop and Mavis Staples)
TTITLE11=I Gotta Get Drunk (With Willie Nelson)
TTITLE12=I Still Hold Her Body (But I Think I've Lost Her Mind) (With Dennis &
TTITLE12=Ray) Of Dr. Hook
TTITLE13=Our Love Was Ahead Of Its Time (With Deborah Allen)
TTITLE14=C.C. Waterback (With Merle Haggard)
TTITLE15=All I Want To Do In Life (With Janie Frickie)
TTITLE16=You Never Looked That Good When You Were Mine (With Patti Page)
TTITLE17=Size Seven Round (Made Of Gold) (With Lacy J. Dalton)
TTITLE18=If You Could Touch Her At All (With Lynn Anderson)
TTITLE19=Proud Mary (With Johnny Paycheck)
TTITLE20=That's Good - That's Bad (With Lacy J. Dalton)
TTITLE21=If I Could Bottle This Up (With Shelby Lynne)
EXTD=
EXTT0=
EXTT1=
EXTT2=
EXTT3=
EXTT4=
EXTT5=
EXTT6=
EXTT7=
EXTT8=
EXTT9=
EXTT10=
EXTT11=
EXTT12=
EXTT13=
EXTT14=
EXTT15=
EXTT16=
EXTT17=
EXTT18=
EXTT19=
EXTT20=
EXTT21=
PLAYORDER=
